<svg version="1.1" xmlns="http://www.w3.org/2000/svg" style="display: block;" viewBox="750 229 550 650" width="500" height="500" preserveAspectRatio="xMidYMid meet">
<path transform="translate(0,0)" fill="rgb(191,165,90)" fill-opacity="0.00784314" d="M 0 0 L 2048 0 L 2048 1116 L 0 1116 L 0 0 z M 1007.13 612.223 C 1007.36 597.583 1006.82 534.201 1003.72 523.411 C 1014.76 526.334 1076.77 602.032 1095.03 609.442 C 1100.63 611.711 1140.2 613.224 1145.13 611.294 L 1145.37 609.886 C 1136.42 599.076 1124.65 590.458 1115.23 580.466 C 1095.42 559.449 1070.64 539.37 1051.22 518.499 C 1064.37 515.386 1072.9 513.877 1086.39 513.07 C 1106.64 528.677 1109.91 539.539 1126.83 556.145 C 1138.28 557.779 1166.58 557.113 1178.15 554.354 C 1180.39 553.818 1187.07 549.638 1188.73 548.162 C 1199.32 538.754 1220.29 525.934 1220.66 510.468 C 1221.08 492.993 1224.13 470.397 1212.07 456.639 C 1190.13 431.625 1167.81 408.672 1147.45 382.399 C 1137.11 369.063 1141.35 358.002 1132.95 347.197 C 1127.75 340.494 1110.67 330.908 1102.63 326.122 C 1136.52 332.142 1239.58 370.345 1267.12 390.406 C 1269.96 425.778 1266.8 477.438 1261.31 512.785 C 1250.3 580.325 1224.07 644.475 1184.61 700.38 C 1180.76 670.408 1169.96 647.602 1163.96 618.127 C 1160.17 623.548 1143.78 666.623 1142.33 673.47 C 1141.46 677.532 1141.61 681.495 1142.36 685.562 C 1144.75 698.504 1158.43 727.254 1150.76 738.855 C 1139.22 756.304 1051.45 819.739 1032.9 823.293 C 1031.38 823.586 1029.73 823.759 1028.33 823.046 C 1029.03 816.006 1028.73 754.494 1027.69 748.737 C 1029.21 745.45 1039.71 739.855 1043.56 737.277 C 1047.1 746.25 1061.5 771.384 1067.84 778.697 C 1070.2 773.812 1072.6 766.407 1074.81 761.038 L 1094.55 712.173 C 1101.46 694.75 1118.41 655.18 1121.62 639.854 C 1119.84 638.506 1118.74 639.042 1116.05 639.113 C 1101.82 637.329 1086.71 638.297 1072.44 637.362 C 1041 635.302 1004.94 634.437 974.005 630.054 C 979.849 639.439 995.349 664.955 1001.57 672.463 C 947.051 709.006 887.358 740.428 829.966 772.248 C 819.95 777.801 809.417 783.454 799.171 788.503 C 790.154 792.403 778.512 799.077 769.714 803.826 C 804.03 801.317 851.338 792.627 887.34 787.809 C 893.066 791.332 896.875 794.863 901.994 799.13 C 936.035 827.504 978.275 859.548 1019.91 875.129 C 1036.65 881.395 1084.83 849.804 1099.7 840.213 C 1201.58 774.984 1273.08 671.667 1298.23 553.344 C 1309.86 499.286 1315.28 446.756 1310.53 391.534 C 1307.53 356.652 1311.92 362.021 1281.82 345.927 C 1225.48 315.791 1166.26 296.357 1104.04 282.347 C 1094.35 280.165 1083.99 279.318 1074.12 277.588 C 1074.3 273.103 1074.53 233.715 1073.85 231.788 C 1065.68 228.832 1023.83 250.392 1014.49 255.868 C 1007.38 260.04 992.851 273.748 985.142 276.447 C 976.19 279.582 962.171 280.653 952.384 282.381 C 938.326 284.864 925.994 288.73 912.355 292.549 C 865.764 305.272 820.395 322.107 776.782 342.855 C 767.335 347.388 752.37 353.263 746.644 361.347 C 727.309 489.13 764.115 632.347 839.495 736.738 C 843.68 734.799 850.148 730.592 854.801 728.159 C 877.672 716.31 900.131 703.68 922.136 690.291 C 933.85 683.266 947.143 674.646 959.278 668.796 C 959.777 668.34 959.81 668.372 960.19 667.674 C 962.982 662.538 948.412 626.472 946.002 618.629 C 938.224 593.318 918.537 523.739 922.011 500.16 C 925.303 477.82 935.398 459.947 945.755 440.377 L 949.437 446.601 C 942.941 459.529 938.159 487.936 943.578 499.869 C 955.43 525.972 990.833 592.759 1007.13 612.223 z"/>
<path transform="translate(0,0)" fill="rgb(195,167,91)" d="M 746.644 361.347 C 752.37 353.263 767.335 347.388 776.782 342.855 C 820.395 322.107 865.764 305.272 912.355 292.549 C 925.994 288.73 938.326 284.864 952.384 282.381 C 962.171 280.653 976.19 279.582 985.142 276.447 C 992.851 273.748 1007.38 260.04 1014.49 255.868 C 1023.83 250.392 1065.68 228.832 1073.85 231.788 C 1074.53 233.715 1074.3 273.103 1074.12 277.588 C 1083.99 279.318 1094.35 280.165 1104.04 282.347 C 1166.26 296.357 1225.48 315.791 1281.82 345.927 C 1311.92 362.021 1307.53 356.652 1310.53 391.534 C 1315.28 446.756 1309.86 499.286 1298.23 553.344 C 1273.08 671.667 1201.58 774.984 1099.7 840.213 C 1084.83 849.804 1036.65 881.395 1019.91 875.129 C 978.275 859.548 936.035 827.504 901.994 799.13 C 896.875 794.863 893.066 791.332 887.34 787.809 C 851.338 792.627 804.03 801.317 769.714 803.826 C 778.512 799.077 790.154 792.403 799.171 788.503 C 809.417 783.454 819.95 777.801 829.966 772.248 C 887.358 740.428 947.051 709.006 1001.57 672.463 C 995.349 664.955 979.849 639.439 974.005 630.054 C 1004.94 634.437 1041 635.302 1072.44 637.362 C 1086.71 638.297 1101.82 637.329 1116.05 639.113 C 1118.74 639.042 1119.84 638.506 1121.62 639.854 C 1118.41 655.18 1101.46 694.75 1094.55 712.173 L 1074.81 761.038 C 1072.6 766.407 1070.2 773.812 1067.84 778.697 C 1061.5 771.384 1047.1 746.25 1043.56 737.277 C 1039.71 739.855 1029.21 745.45 1027.69 748.737 C 1028.73 754.494 1029.03 816.006 1028.33 823.046 C 1029.73 823.759 1031.38 823.586 1032.9 823.293 C 1051.45 819.739 1139.22 756.304 1150.76 738.855 C 1158.43 727.254 1144.75 698.504 1142.36 685.562 C 1141.61 681.495 1141.46 677.532 1142.33 673.47 C 1143.78 666.623 1160.17 623.548 1163.96 618.127 C 1169.96 647.602 1180.76 670.408 1184.61 700.38 C 1224.07 644.475 1250.3 580.325 1261.31 512.785 C 1266.8 477.438 1269.96 425.778 1267.12 390.406 C 1239.58 370.345 1136.52 332.142 1102.63 326.122 C 1110.67 330.908 1127.75 340.494 1132.95 347.197 C 1141.35 358.002 1137.11 369.063 1147.45 382.399 C 1167.81 408.672 1190.13 431.625 1212.07 456.639 C 1224.13 470.397 1221.08 492.993 1220.66 510.468 C 1220.29 525.934 1199.32 538.754 1188.73 548.162 C 1187.07 549.638 1180.39 553.818 1178.15 554.354 C 1166.58 557.113 1138.28 557.779 1126.83 556.145 C 1109.91 539.539 1106.64 528.677 1086.39 513.07 C 1072.9 513.877 1064.37 515.386 1051.22 518.499 C 1070.64 539.37 1095.42 559.449 1115.23 580.466 C 1124.65 590.458 1136.42 599.076 1145.37 609.886 L 1145.13 611.294 C 1140.2 613.224 1100.63 611.711 1095.03 609.442 C 1076.77 602.032 1014.76 526.334 1003.72 523.411 C 1006.82 534.201 1007.36 597.583 1007.13 612.223 C 990.833 592.759 955.43 525.972 943.578 499.869 C 938.159 487.936 942.941 459.529 949.437 446.601 C 955.668 435.538 959.519 420.93 963.289 408.631 C 959.294 414.325 949.842 433.057 945.755 440.377 C 935.398 459.947 925.303 477.82 922.011 500.16 C 918.537 523.739 938.224 593.318 946.002 618.629 C 948.412 626.472 962.982 662.538 960.19 667.674 C 959.81 668.372 959.777 668.34 959.278 668.796 C 947.143 674.646 933.85 683.266 922.136 690.291 C 900.131 703.68 877.672 716.31 854.801 728.159 C 850.148 730.592 843.68 734.799 839.495 736.738 C 764.115 632.347 727.309 489.13 746.644 361.347 z M 926.516 335.258 C 933.176 331.292 940.065 327.42 946.795 323.548 C 939.041 324.874 929.508 327.571 922.109 330.232 C 879.283 342.672 863.395 351.129 849.625 394.507 C 863.311 384.621 877.235 370.83 890.791 360.132 C 902.924 350.556 913.671 343.712 926.516 335.258 z M 844.916 659.839 C 846.542 662.888 847.318 665.807 849.887 666.988 C 851.313 664.415 851.242 663.431 851.586 660.51 C 855.056 626.378 845.009 593.674 838.706 560.442 C 835.782 545.025 829.752 522.898 833.041 507.651 C 839.308 478.597 854.136 451.993 865.48 425.169 C 866.549 423.811 872.082 411.497 873.169 409.14 C 868.929 413.029 864.49 417.466 860.316 421.487 C 853.633 426.076 836.618 439.401 833.3 444.771 C 826.951 455.046 800.674 521.222 799.68 527.946 C 795.392 556.941 831.668 634.266 844.916 659.839 z"/>
<path transform="translate(0,0)" fill="rgb(223,196,122)" d="M 881.891 676.015 C 890.443 637.806 879.596 595.998 871.371 558.586 C 864.553 527.568 861.757 513.39 874.628 483.446 C 883.818 460.634 894.223 438.074 904.201 415.614 C 912.938 395.946 915.229 379.453 933.451 366.025 C 945.241 354.937 980.013 337.407 988.914 326.156 C 1011.39 297.744 1008.54 288.78 1045.48 272.531 C 1043.17 288.793 1042.45 305.948 1039.61 321.947 C 1060.29 330.186 1087.15 348.384 1104.62 362.558 C 1113.78 374.439 1112.25 387.171 1121.32 400.551 C 1139.18 426.886 1176.11 456.996 1190.96 483.203 C 1191.94 517.647 1172.06 526.314 1140.99 524.465 C 1129.82 510.188 1110.83 485.702 1092.68 481.356 C 1078.12 476.443 1052.82 488.123 1040.55 486.744 C 1031.35 485.71 994.605 467.556 989.986 460.007 C 980.114 443.868 978.13 411.23 974.914 392.258 C 973.725 402.854 972.59 412.046 970.13 422.453 C 965.939 440.176 960.101 454.221 959.7 472.449 C 970.6 487.54 995.956 507.232 1003.72 523.411 C 1006.82 534.201 1007.36 597.583 1007.13 612.223 C 990.833 592.759 955.43 525.972 943.578 499.869 C 938.159 487.936 942.941 459.529 949.437 446.601 C 955.668 435.538 959.519 420.93 963.289 408.631 C 959.294 414.325 949.842 433.057 945.755 440.377 C 935.398 459.947 925.303 477.82 922.011 500.16 C 918.537 523.739 938.224 593.318 946.002 618.629 C 948.412 626.472 962.982 662.538 960.19 667.674 C 959.81 668.372 959.777 668.34 959.278 668.796 C 933.808 668.234 907.318 672.889 881.891 676.015 z"/>
<path transform="translate(0,0)" fill="rgb(195,167,91)" d="M 1041.18 360.584 C 1043.76 361.459 1054.15 367.487 1057.15 369.22 C 1066.56 374.67 1072.74 377.671 1082.87 381.518 C 1089.02 391.822 1095.37 402.173 1100.94 412.789 C 1090.41 410.628 1069.41 403.269 1061.31 395.854 C 1052.7 387.981 1045.86 371.505 1041.18 360.584 z"/>
<path transform="translate(0,0)" fill="rgb(223,196,122)" d="M 974.005 630.054 C 1004.94 634.437 1041 635.302 1072.44 637.362 C 1086.71 638.297 1101.82 637.329 1116.05 639.113 C 1109.66 647.12 1095.07 655.672 1086.6 662.201 C 1052.29 688.636 1010.74 710.825 973.14 731.597 C 954.134 742.097 812.408 797.851 799.171 788.503 C 809.417 783.454 819.95 777.801 829.966 772.248 C 887.358 740.428 947.051 709.006 1001.57 672.463 C 995.349 664.955 979.849 639.439 974.005 630.054 z"/>
<path transform="translate(0,0)" fill="rgb(223,196,122)" d="M 956.032 782.658 C 966.575 775.67 979.982 770.537 991.611 764.956 C 1002.78 759.595 1015.44 752.068 1026.46 747.358 L 1027.69 748.737 C 1028.73 754.494 1029.03 816.006 1028.33 823.046 C 1011.45 824.971 968.067 793.962 956.032 782.658 z"/>
<path transform="translate(0,0)" fill="rgb(195,167,91)" fill-opacity="0.0235294" d="M 922.109 330.232 C 929.508 327.571 939.041 324.874 946.795 323.548 C 940.065 327.42 933.176 331.292 926.516 335.258 L 922.109 330.232 z"/>
<path transform="translate(0,0)" fill="rgb(195,167,91)" fill-opacity="0.0196078" d="M 873.169 409.14 C 872.082 411.497 866.549 423.811 865.48 425.169 C 862.605 424.508 862.379 423.849 860.316 421.487 C 864.49 417.466 868.929 413.029 873.169 409.14 z"/>
<path transform="translate(0,0)" fill="rgb(195,167,91)" fill-opacity="0.0117647" d="M 844.916 659.839 L 848.61 658.152 C 850.435 658.895 850.442 658.784 851.586 660.51 C 851.242 663.431 851.313 664.415 849.887 666.988 C 847.318 665.807 846.542 662.888 844.916 659.839 z"/>
<path transform="translate(0,0)" fill="rgb(223,196,122)" fill-opacity="0.0352941" d="M 945.755 440.377 C 949.842 433.057 959.294 414.325 963.289 408.631 C 959.519 420.93 955.668 435.538 949.437 446.601 L 945.755 440.377 z"/>
</svg>