<svg version="1.1" xmlns="http://www.w3.org/2000/svg" style="display: block;" viewBox="0 0 2048 1116" width="677" height="369" preserveAspectRatio="none">
<defs>
	<linearGradient id="Gradient1" gradientUnits="userSpaceOnUse" x1="755.026" y1="556.307" x2="923.017" y2="492.538">
		<stop class="stop0" offset="0" stop-opacity="1" stop-color="rgb(178,143,70)"/>
		<stop class="stop1" offset="1" stop-opacity="1" stop-color="rgb(232,202,112)"/>
	</linearGradient>
	<linearGradient id="Gradient2" gradientUnits="userSpaceOnUse" x1="1099.17" y1="560.459" x2="1081.96" y2="597.562">
		<stop class="stop0" offset="0" stop-opacity="1" stop-color="rgb(159,126,65)"/>
		<stop class="stop1" offset="1" stop-opacity="1" stop-color="rgb(217,184,100)"/>
	</linearGradient>
	<linearGradient id="Gradient3" gradientUnits="userSpaceOnUse" x1="1068.96" y1="543.737" x2="1075.46" y2="420.296">
		<stop class="stop0" offset="0" stop-opacity="1" stop-color="rgb(194,158,82)"/>
		<stop class="stop1" offset="1" stop-opacity="1" stop-color="rgb(248,222,133)"/>
	</linearGradient>
	<linearGradient id="Gradient4" gradientUnits="userSpaceOnUse" x1="1266.81" y1="654.919" x2="819.143" y2="338.967">
		<stop class="stop0" offset="0" stop-opacity="1" stop-color="rgb(186,150,74)"/>
		<stop class="stop1" offset="1" stop-opacity="1" stop-color="rgb(227,201,116)"/>
	</linearGradient>
</defs>

<path transform="translate(0,0)" fill="url(#Gradient4)" d="M 785.798 340.361 C 808.219 326.946 835.953 318.208 860.409 309.469 C 887.306 299.856 914.402 291.121 942.085 284.036 C 956.333 280.434 973.289 280.031 986.769 275.647 C 995.415 272.835 1006.69 261.801 1015.43 256.558 C 1035.5 244.517 1053.29 239.002 1075.28 231.994 C 1075.43 247.498 1073.93 261.887 1073.91 276.547 C 1086.35 278.661 1099.99 280.127 1112.29 283.071 C 1153.36 292.896 1195.25 307.264 1234.53 322.602 C 1258.86 332.102 1283.78 346.959 1307.79 358.042 C 1309.73 398.659 1312.04 433.624 1309.21 474.381 C 1299.55 613.593 1236.8 737.048 1124.45 820.447 L 1120.24 818.208 C 1122.74 816.336 1125.05 814.002 1127.32 811.837 C 1125.97 810.706 1123.45 813.578 1121.9 814.832 C 1109.08 825.198 1093.07 838.084 1077.04 842.075 C 1071.09 843.554 1069.96 824.558 1068.6 821 C 1068.94 821.896 1063.56 815.998 1063.56 815.99 C 1064.52 813.944 1077.95 805.141 1081.06 802.804 L 1080.85 801.832 L 1078.39 802.905 L 1076.47 801.112 C 1105.88 782.764 1132.84 760.74 1156.68 735.572 C 1152.45 715.027 1145.14 693.601 1141.14 672.641 C 1150.74 652.455 1155.72 639.66 1163.45 618.715 C 1171.51 645.22 1178.45 672.523 1186.41 699.272 C 1234.25 629.516 1262.53 548.216 1268.31 463.827 C 1270.12 437.794 1269.28 413.694 1268.82 387.788 C 1223.69 362.029 1189.06 351.643 1140.78 335.669 C 1135.25 335.119 1114.29 328.902 1107.94 327.075 C 1112.57 330.453 1115.57 332.772 1119.9 336.598 C 1143.27 351.258 1134.05 363.542 1147.34 380.636 C 1158.51 394.998 1173.43 411.663 1185.5 425.616 C 1197.31 439.483 1208.94 453.498 1220.4 467.658 C 1220.24 483.758 1220.38 501.321 1219.58 517.29 C 1215.19 523.887 1210.97 527.77 1205.32 533.259 C 1198.82 538.867 1189.53 547.077 1182.27 550.837 C 1171 556.68 1138.77 555.508 1125.37 554.493 C 1124.94 554.462 1124.51 554.426 1124.08 554.385 C 1120.55 549.057 1117.46 544.531 1114.48 538.847 C 1116.38 534.633 1113.89 530.574 1112.27 526.38 C 1110.17 525.252 1109.04 521.637 1107.76 519.013 C 1104.12 519.663 1102.44 519.649 1098.78 519.686 C 1094.72 517.267 1089.77 514.127 1085.66 511.981 C 1074.43 512.108 1062.83 513.948 1051.61 515.024 C 1052.45 516.013 1055.89 519.899 1056.38 520.74 C 1073.79 537.035 1086.99 550.768 1103.56 567.671 C 1117 578.511 1133.72 598.016 1147.11 610.83 C 1140.96 610.285 1110.39 609.209 1107.27 608.255 C 1100.16 608.192 1097.69 607.824 1090.79 606.569 C 1088.3 603.85 1085.77 600.865 1083.32 598.074 L 1079.63 593.934 C 1073.83 587.72 1067.71 582.133 1061.5 576.352 C 1047.78 565.617 1041.05 554.693 1028.7 543.282 L 1024.73 539.967 C 1021.88 537.937 1019.8 535.589 1017.38 533.071 C 1012.67 528.605 1009.42 524.902 1005.19 520.047 C 1002.27 524.446 1005.61 596.783 1006.02 607.946 C 984.344 572.314 961.514 537.55 943.923 499.546 C 939.168 489.273 942.156 474.584 944.762 463.909 C 948.669 447.216 954.517 431.038 962.187 415.705 C 937.357 446.752 916.167 479.261 921.665 520.945 C 928.586 573.416 943.999 617.145 961.57 666.506 C 956.498 669.526 945.642 676.376 940.73 678.595 C 932.202 684.45 920.818 689.327 911.775 694.722 C 888.868 708.389 866.016 720.659 842.427 733.053 C 837.279 727.167 832.422 721.034 827.873 714.675 C 761.372 619.786 732.24 486.397 744.773 371.718 C 745.269 367.174 745.881 362.635 746.666 358.131 C 757.972 353.563 777.483 343.294 785.798 340.361 z"/>
<path transform="translate(0,0)" fill="rgb(175,159,131)" d="M 1002.01 309.916 C 1014.69 289.235 1021.31 286.157 1043.18 276.113 C 1042.82 292.275 1040.86 305.787 1041.33 322.184 C 1050.74 329.113 1070.17 341.126 1080.65 346.405 C 1086.11 352.108 1100.43 354.997 1105.99 362.548 C 1113.89 373.279 1112.81 388.459 1121.18 399.215 C 1137.13 419.129 1155.92 436.471 1171.65 456.706 C 1177.43 464.138 1184.44 469.824 1189.19 478.196 C 1188.88 487.242 1188.66 496.292 1188.54 505.343 C 1186.11 510.125 1182.15 513.767 1178.05 517.22 L 1180.97 518.12 C 1172.8 525.415 1168.96 527.816 1156.97 528.702 C 1147.47 529.405 1132.8 527.734 1124.12 523.886 C 1122.64 523.231 1114.64 516.044 1112.8 514.421 C 1110.3 514.894 1109.76 516.56 1107.76 519.013 C 1104.12 519.663 1102.44 519.649 1098.78 519.686 C 1094.72 517.267 1089.77 514.127 1085.66 511.981 C 1074.43 512.108 1062.83 513.948 1051.61 515.024 C 1052.45 516.013 1055.89 519.899 1056.38 520.74 C 1073.79 537.035 1086.99 550.768 1103.56 567.671 C 1117 578.511 1133.72 598.016 1147.11 610.83 C 1140.96 610.285 1110.39 609.209 1107.27 608.255 C 1100.16 608.192 1097.69 607.824 1090.79 606.569 C 1088.3 603.85 1085.77 600.865 1083.32 598.074 L 1079.63 593.934 C 1073.83 587.72 1067.71 582.133 1061.5 576.352 C 1047.78 565.617 1041.05 554.693 1028.7 543.282 L 1024.73 539.967 C 1021.88 537.937 1019.8 535.589 1017.38 533.071 C 1012.67 528.605 1009.42 524.902 1005.19 520.047 C 1002.27 524.446 1005.61 596.783 1006.02 607.946 C 984.344 572.314 961.514 537.55 943.923 499.546 C 939.168 489.273 942.156 474.584 944.762 463.909 C 948.669 447.216 954.517 431.038 962.187 415.705 C 937.357 446.752 916.167 479.261 921.665 520.945 C 928.586 573.416 943.999 617.145 961.57 666.506 C 956.498 669.526 945.642 676.376 940.73 678.595 C 942.459 674.911 944.362 676.005 945.112 671.907 C 938.494 668.977 893.213 671.388 882.717 672.428 C 890.749 635.023 883.887 611.724 874.171 575.639 C 870.858 563.331 868.486 546.738 865.575 534.014 C 864.623 529.849 861.13 512.981 862.089 509.664 C 865.93 496.374 877.01 481.814 881.943 469.176 C 890.223 447.962 898.132 427.751 907.031 406.888 C 917.538 381.655 917.589 376.003 940.065 359.613 C 947.276 356.957 984.407 329.327 991.52 322.977 C 995.226 319.668 999.375 314.292 1002.01 309.916 z"/>
<path transform="translate(0,0)" fill="url(#Gradient3)" d="M 964.591 446.17 C 966.69 437.492 971.106 416.301 975.882 409.743 C 978.352 422.308 984.021 449.923 988.883 461.008 C 1001.77 469.235 1020.66 480.246 1034.62 486.261 C 1051.07 483.999 1077.86 479.338 1093.69 481.965 C 1112.17 485.031 1127.37 512.465 1139.15 523.61 C 1155.47 524.605 1164.52 527.041 1178.05 517.22 L 1180.97 518.12 C 1172.8 525.415 1168.96 527.816 1156.97 528.702 C 1147.47 529.405 1132.8 527.734 1124.12 523.886 C 1122.64 523.231 1114.64 516.044 1112.8 514.421 C 1110.3 514.894 1109.76 516.56 1107.76 519.013 C 1104.12 519.663 1102.44 519.649 1098.78 519.686 C 1094.72 517.267 1089.77 514.127 1085.66 511.981 C 1074.43 512.108 1062.83 513.948 1051.61 515.024 C 1052.45 516.013 1055.89 519.899 1056.38 520.74 C 1073.79 537.035 1086.99 550.768 1103.56 567.671 C 1117 578.511 1133.72 598.016 1147.11 610.83 C 1140.96 610.285 1110.39 609.209 1107.27 608.255 C 1100.16 608.192 1097.69 607.824 1090.79 606.569 C 1088.3 603.85 1085.77 600.865 1083.32 598.074 L 1079.63 593.934 C 1073.83 587.72 1067.71 582.133 1061.5 576.352 C 1047.78 565.617 1041.05 554.693 1028.7 543.282 L 1024.73 539.967 C 1021.88 537.937 1019.8 535.589 1017.38 533.071 C 1012.67 528.605 1009.42 524.902 1005.19 520.047 C 1001.49 511.939 979.879 493.829 973.035 486.764 C 968.11 481.68 963.301 476.365 958.505 470.921 C 960.69 463.53 962.747 453.816 964.591 446.17 z"/>
<path transform="translate(0,0)" fill="url(#Gradient2)" d="M 1063.06 575.776 C 1062.48 575.108 1060.2 572.428 1059.93 571.789 C 1056.66 564.08 1040.3 553.145 1039.33 546.023 L 1040.71 544.821 C 1044.27 545.128 1056.3 545.772 1059.74 545.097 C 1077.92 541.537 1088.17 564.684 1102.8 567.53 L 1103.56 567.671 C 1117 578.511 1133.72 598.016 1147.11 610.83 C 1140.96 610.285 1110.39 609.209 1107.27 608.255 C 1100.16 608.192 1097.69 607.824 1090.79 606.569 C 1088.3 603.85 1085.77 600.865 1083.32 598.074 L 1079.63 593.934 C 1073.83 587.72 1067.71 582.133 1061.5 576.352 L 1063.06 575.776 z"/>
<path transform="translate(0,0)" fill="rgb(200,166,85)" d="M 1063.06 575.776 C 1069.72 578.259 1080.37 582.756 1083.06 589.683 C 1081.97 592.107 1081.83 592.492 1079.63 593.934 C 1073.83 587.72 1067.71 582.133 1061.5 576.352 L 1063.06 575.776 z"/>
<path transform="translate(0,0)" fill="rgb(200,166,85)" d="M 1083.32 598.074 C 1088.6 600.242 1102.54 605.887 1107.27 608.255 C 1100.16 608.192 1097.69 607.824 1090.79 606.569 C 1088.3 603.85 1085.77 600.865 1083.32 598.074 z"/>
<path transform="translate(0,0)" fill="rgb(233,209,142)" d="M 964.591 446.17 C 967.055 452.544 963.043 453.44 964.906 456.566 C 967.144 460.322 972.749 463.959 974.457 468.622 C 973.387 470.602 972.996 470.622 970.896 471.712 C 970.814 474.373 971.088 474.723 972.472 477.028 C 977.84 480.413 981.64 474.619 988.03 476.428 C 990.348 478.21 990.381 477.681 991.323 480.004 L 989.464 480.344 C 989.502 483.285 989.343 484.847 990.525 487.612 C 995.73 489.42 998.181 487.359 999.793 491.221 C 1001.81 496.044 1004.59 500.625 1006.82 505.219 C 1007.41 505.138 1008.69 505.024 1009.17 504.825 C 1009.14 515.26 1024.63 522.269 1023.09 536.476 C 1021.19 534.296 1020.1 533.981 1017.38 533.071 C 1012.67 528.605 1009.42 524.902 1005.19 520.047 C 1001.49 511.939 979.879 493.829 973.035 486.764 C 968.11 481.68 963.301 476.365 958.505 470.921 C 960.69 463.53 962.747 453.816 964.591 446.17 z"/>
<path transform="translate(0,0)" fill="rgb(200,166,85)" d="M 1028.7 543.282 C 1041.46 537.689 1041.89 528.209 1036.62 516.994 L 1039.8 516.574 C 1039.09 510.232 1038.03 499.469 1048.77 501.382 L 1048.44 502.943 C 1045.58 503.926 1044.31 504.101 1042.19 506.27 C 1041.24 509.565 1041.34 510.295 1041.5 513.621 C 1043.01 511.513 1043.52 510.86 1045.41 509.094 C 1050.77 510.673 1039 521.005 1051.9 523.097 C 1051.25 526.819 1043.62 529.997 1040.94 533.534 C 1038.56 536.673 1037.69 538.817 1036.14 542.422 L 1037.61 542.921 C 1042.29 539.466 1045.24 537.275 1050.72 535.36 C 1054.22 536.332 1063.66 534.899 1065.46 532.166 C 1061.43 529.15 1055.25 525.985 1056.38 520.74 C 1073.79 537.035 1086.99 550.768 1103.56 567.671 L 1102.8 567.53 C 1088.17 564.684 1077.92 541.537 1059.74 545.097 C 1056.3 545.772 1044.27 545.128 1040.71 544.821 L 1039.33 546.023 C 1040.3 553.145 1056.66 564.08 1059.93 571.789 C 1060.2 572.428 1062.48 575.108 1063.06 575.776 L 1061.5 576.352 C 1047.78 565.617 1041.05 554.693 1028.7 543.282 z"/>
<path transform="translate(0,0)" fill="rgb(200,166,85)" d="M 1009.17 504.825 C 1007.44 500.845 1007.5 502.331 1008.06 498.657 C 1012.18 495.686 1010.99 498.133 1016.54 497.501 C 1015.98 496.813 1015.47 496.153 1015.01 495.391 C 1017.42 494.067 1017.3 494.645 1020.56 495.386 C 1021.7 501.533 1017.74 512.011 1017.94 512.884 C 1019.98 521.844 1030.97 529.115 1024.73 539.967 C 1021.88 537.937 1019.8 535.589 1017.38 533.071 C 1020.1 533.981 1021.19 534.296 1023.09 536.476 C 1024.63 522.269 1009.14 515.26 1009.17 504.825 z"/>
<path transform="translate(0,0)" fill="rgb(142,116,69)" d="M 978.95 387.481 C 997.92 417.109 1013.8 433.753 1041.76 455.434 C 1057.59 454.337 1073 450.73 1087.87 449.664 C 1107.3 462.549 1125.99 475.932 1144.47 490.14 C 1158.23 500.715 1170 509.493 1188.54 505.343 C 1186.11 510.125 1182.15 513.767 1178.05 517.22 C 1164.52 527.041 1155.47 524.605 1139.15 523.61 C 1127.37 512.465 1112.17 485.031 1093.69 481.965 C 1077.86 479.338 1051.07 483.999 1034.62 486.261 C 1020.66 480.246 1001.77 469.235 988.883 461.008 C 984.021 449.923 978.352 422.308 975.882 409.743 C 975.599 401.145 977.601 395.714 978.95 387.481 z"/>
<path transform="translate(0,0)" fill="rgb(233,209,142)" d="M 1043.44 362.627 C 1049.52 364.063 1054.83 370.009 1059.65 371.698 C 1085.14 380.623 1087.08 390.493 1099.29 412.407 C 1093.08 411.027 1080.06 405.014 1073.48 402.54 C 1054.29 395.326 1050.41 380.275 1043.44 362.627 z"/>
<path transform="translate(0,0)" fill="url(#Gradient1)" d="M 785.798 340.361 C 794.297 341.151 826.915 320.369 834.866 320.464 C 833.194 322.928 832.306 324.703 829.8 326.296 C 833.41 339.158 844.029 359.251 852.583 369.942 C 855.382 373.441 854.282 373.656 855.603 375.734 C 853.551 383.296 852.352 387.494 849.306 394.671 C 873.816 373.758 893.741 358.018 919.712 339.45 L 920.124 341.048 C 911.778 348.213 867.951 378.216 867.084 384.366 C 871.358 392.195 889.971 417.655 896.458 423.267 L 897.632 423.298 C 900.847 417.295 902.875 412.767 905.539 406.521 L 907.031 406.888 C 898.132 427.751 890.223 447.962 881.943 469.176 C 877.01 481.814 865.93 496.374 862.089 509.664 C 861.13 512.981 864.623 529.849 865.575 534.014 C 868.486 546.738 870.858 563.331 874.171 575.639 C 883.887 611.724 890.749 635.023 882.717 672.428 C 893.213 671.388 938.494 668.977 945.112 671.907 C 944.362 676.005 942.459 674.911 940.73 678.595 C 932.202 684.45 920.818 689.327 911.775 694.722 C 888.868 708.389 866.016 720.659 842.427 733.053 C 837.279 727.167 832.422 721.034 827.873 714.675 C 761.372 619.786 732.24 486.397 744.773 371.718 C 745.269 367.174 745.881 362.635 746.666 358.131 C 757.972 353.563 777.483 343.294 785.798 340.361 z"/>
<path transform="translate(0,0)" fill="rgb(175,159,131)" d="M 870.989 412.098 C 870.356 420.366 839.79 498.038 834.116 510.422 C 835.767 528.685 841.413 546.309 843.607 564.123 C 847.947 599.374 858.138 637.287 853.236 672.536 L 852.062 673.285 C 848.751 669.46 842.317 656.742 839.587 651.656 C 834.254 641.764 818.609 611.736 814.988 601.925 C 807.612 581.937 799.452 554.47 793.475 534.015 C 797.041 521.931 802.373 510.078 806.38 499.065 C 816.428 471.444 823.542 440.452 851.789 425.913 C 856.75 423.359 866.123 415.766 870.989 412.098 z"/>
<path transform="translate(0,0)" fill="rgb(43,36,27)" d="M 923.873 328.382 C 930.017 326.345 935.181 324.399 941.19 321.99 C 937.57 324.868 921.671 336.759 919.712 339.45 C 893.741 358.018 873.816 373.758 849.306 394.671 C 852.352 387.494 853.551 383.296 855.603 375.734 C 856.554 373.464 857.54 370.431 858.393 368.055 C 867.247 350.112 872.702 346.52 891.935 339.766 C 902.383 336.097 913.37 332.08 923.873 328.382 z"/>
<path transform="translate(0,0)" fill="rgb(200,166,85)" d="M 1112.27 526.38 C 1119.77 535.53 1120.16 547.951 1132.36 549.118 C 1170.98 552.811 1182.9 548.979 1209.33 521.116 C 1209.8 527.5 1204.84 526.395 1203.94 531.071 L 1205.32 533.259 C 1198.82 538.867 1189.53 547.077 1182.27 550.837 C 1171 556.68 1138.77 555.508 1125.37 554.493 C 1124.94 554.462 1124.51 554.426 1124.08 554.385 C 1120.55 549.057 1117.46 544.531 1114.48 538.847 C 1116.38 534.633 1113.89 530.574 1112.27 526.38 z"/>
<path transform="translate(0,0)" fill="rgb(233,209,142)" d="M 1002.01 309.916 C 1000.4 294.326 1040.76 269.096 1046.5 273.785 C 1044.4 290.675 1042.29 304.339 1042.49 321.349 C 1049.51 324.259 1077.71 340.423 1081.31 345.608 L 1080.65 346.405 C 1070.17 341.126 1050.74 329.113 1041.33 322.184 C 1040.86 305.787 1042.82 292.275 1043.18 276.113 C 1021.31 286.157 1014.69 289.235 1002.01 309.916 z"/>
<path transform="translate(0,0)" fill="rgb(200,166,85)" d="M 1119.9 336.598 C 1114.45 337.934 1101.64 331.725 1098.64 325.784 L 1098.82 323.364 C 1104.94 318.287 1132.38 327.867 1139.71 330.814 L 1140.04 331.977 L 1137.79 333.486 L 1140.53 334.461 L 1140.78 335.669 C 1135.25 335.119 1114.29 328.902 1107.94 327.075 C 1112.57 330.453 1115.57 332.772 1119.9 336.598 z"/>
<path transform="translate(0,0)" fill="rgb(233,209,142)" d="M 905.539 406.521 C 905.852 405.12 907.275 402.821 907.751 401.314 C 909.198 396.736 905.504 394.057 903.939 387.309 C 906.437 380.24 911.047 382.511 915.74 382.372 C 919.657 374.985 930.939 360.054 940.065 359.613 C 917.589 376.003 917.538 381.655 907.031 406.888 L 905.539 406.521 z"/>
<path transform="translate(0,0)" fill="rgb(233,209,142)" d="M 858.393 368.055 L 857.009 367.979 C 857.011 366.211 860.399 358.711 861.337 357.066 C 866.065 348.778 879.637 340.7 888.838 338.591 L 889.748 338.39 L 890.512 334.124 L 891.933 333.426 C 904.533 337.823 915.623 325.177 923.873 328.382 C 913.37 332.08 902.383 336.097 891.935 339.766 C 872.702 346.52 867.247 350.112 858.393 368.055 z"/>
<path transform="translate(0,0)" fill="rgb(200,166,85)" d="M 1189.19 478.196 C 1191.21 482.631 1192.36 504.096 1189.75 509.11 C 1186.88 514.625 1186.04 514.643 1180.97 518.12 L 1178.05 517.22 C 1182.15 513.767 1186.11 510.125 1188.54 505.343 C 1188.66 496.292 1188.88 487.242 1189.19 478.196 z"/>
<path transform="translate(0,0)" fill="rgb(233,209,142)" d="M 894.446 301.272 C 895.697 300.896 895.979 301.025 897.351 301.025 C 895.467 304.113 888.7 305.679 886.536 307.833 C 879.053 315.281 880.728 314.793 870.309 314.908 L 867.555 314.529 L 866.397 312.066 L 865.168 312.632 C 867.721 308.732 885.459 306.218 893.491 301.803 L 894.446 301.272 z"/>
<path transform="translate(0,0)" fill="rgb(233,209,142)" d="M 978.288 633.75 C 1014.12 634.254 1050.4 637.25 1086.26 638.383 C 1096.77 638.715 1108.33 639.14 1118.72 640.404 L 1119.65 642.593 C 1112.29 668.383 1097.99 695.899 1088.24 721.104 C 1080.67 740.668 1075.44 756.789 1066.68 776.137 C 1058.43 763.702 1049 750.122 1042.38 736.851 C 1037.68 739.083 1031.65 741.587 1027.75 744.854 C 1023.42 746.754 1019.99 748.269 1015.86 750.56 C 987.885 759.255 960.935 767.86 932.342 774.846 C 917.445 778.485 901.972 780.831 887.295 784.525 C 859.489 789.668 818.67 797.483 791.104 799.421 L 772.585 801.603 C 792.766 793.202 810.138 782.618 829.163 773.222 C 877.162 749.517 925.83 722.861 970.915 694.064 C 982.768 686.493 993.166 681.853 1005.16 673.213 C 996.159 660.271 986.711 647.016 978.288 633.75 z"/>
<path transform="translate(0,0)" fill="rgb(200,166,85)" d="M 791.104 799.421 C 792.392 797.75 794.246 795.749 796.287 795.045 C 824.108 785.444 852.273 776.975 880.033 767.136 C 891.252 763.378 902.816 760.748 913.882 756.528 C 970.47 734.803 1024.15 706.694 1074.21 672.531 C 1089.89 661.832 1103.43 652.636 1119.65 642.593 C 1112.29 668.383 1097.99 695.899 1088.24 721.104 C 1080.67 740.668 1075.44 756.789 1066.68 776.137 C 1058.43 763.702 1049 750.122 1042.38 736.851 C 1037.68 739.083 1031.65 741.587 1027.75 744.854 C 1023.42 746.754 1019.99 748.269 1015.86 750.56 C 987.885 759.255 960.935 767.86 932.342 774.846 C 917.445 778.485 901.972 780.831 887.295 784.525 C 859.489 789.668 818.67 797.483 791.104 799.421 z"/>
<path transform="translate(0,0)" fill="rgb(142,116,69)" d="M 1015.86 750.56 C 1019.99 748.269 1023.42 746.754 1027.75 744.854 C 1028.07 755.443 1027.17 822.071 1029.01 825.888 C 1040.6 821.368 1064.59 807.55 1076.47 801.112 L 1078.39 802.905 L 1080.85 801.832 L 1081.06 802.804 C 1077.95 805.141 1064.52 813.944 1063.56 815.99 C 1063.56 815.998 1068.94 821.896 1068.6 821 C 1069.96 824.558 1071.09 843.554 1077.04 842.075 C 1093.07 838.084 1109.08 825.198 1121.9 814.832 C 1123.45 813.578 1125.97 810.706 1127.32 811.837 C 1125.05 814.002 1122.74 816.336 1120.24 818.208 L 1124.45 820.447 C 1105.77 835.325 1050.42 867.624 1027.47 874.985 C 1009.18 867.689 957.492 839.445 940.037 827.257 C 932.713 823.63 893.36 791.265 887.295 784.525 C 901.972 780.831 917.445 778.485 932.342 774.846 C 960.935 767.86 987.885 759.255 1015.86 750.56 z"/>
<path transform="translate(0,0)" fill="rgb(175,159,131)" d="M 1015.86 750.56 C 1019.99 748.269 1023.42 746.754 1027.75 744.854 C 1028.07 755.443 1027.17 822.071 1029.01 825.888 L 1027.03 826.183 C 1025.7 828.006 1025.57 828.084 1025.21 830.257 C 996.443 814.58 975.604 800.335 949.198 781.374 C 963.318 776.959 1003.41 758.273 1015.86 750.56 z"/>
<path transform="translate(0,0)" fill="rgb(200,166,85)" d="M 1120.24 818.208 L 1124.45 820.447 C 1105.77 835.325 1050.42 867.624 1027.47 874.985 C 1009.18 867.689 957.492 839.445 940.037 827.257 C 943.153 823.953 943.752 826.153 946.679 827.668 C 970.271 839.877 1003.32 863.418 1028.34 870.702 C 1049.15 863.55 1103.66 832.247 1120.24 818.208 z"/>
<path transform="translate(0,0)" fill="rgb(200,166,85)" d="M 1029.01 825.888 C 1040.6 821.368 1064.59 807.55 1076.47 801.112 L 1078.39 802.905 C 1070.78 808.707 1033.04 829.529 1025.21 830.257 C 1025.57 828.084 1025.7 828.006 1027.03 826.183 L 1029.01 825.888 z"/>
<path transform="translate(0,0)" fill="rgb(200,166,85)" d="M 1107.76 519.013 C 1109.04 521.637 1110.17 525.252 1112.27 526.38 C 1113.89 530.574 1116.38 534.633 1114.48 538.847 C 1109.15 531.098 1105.94 525.843 1098.78 519.686 C 1102.44 519.649 1104.12 519.663 1107.76 519.013 z"/>
</svg>