<svg xmlns="http://www.w3.org/2000/svg" style="display:block" viewBox="750 229 550 650" width="170" height="192">
  <path fill="#bfa55a" fill-opacity=".008" d="M0 0h2048v1116H0zm1007.13 612.223c.23-14.64-.31-78.022-3.41-88.812 11.04 2.923 73.05 78.621 91.31 86.031 5.6 2.269 45.17 3.782 50.1 1.852l.24-1.408c-8.95-10.81-20.72-19.428-30.14-29.42-19.81-21.017-44.59-41.096-64.01-61.967 13.15-3.113 21.68-4.622 35.17-5.429 20.25 15.607 23.52 26.469 40.44 43.075 11.45 1.634 39.75.968 51.32-1.791 2.24-.536 8.92-4.716 10.58-6.192 10.59-9.408 31.56-22.228 31.93-37.694.42-17.475 3.47-40.071-8.59-53.829-21.94-25.014-44.26-47.967-64.62-74.24-10.34-13.336-6.1-24.397-14.5-35.202-5.2-6.703-22.28-16.289-30.32-21.075 33.89 6.02 136.95 44.223 164.49 64.284 2.84 35.372-.32 87.032-5.81 122.379a451.2 451.2 0 0 1-76.7 187.595c-3.85-29.972-14.65-52.778-20.65-82.253-3.79 5.421-20.18 48.496-21.63 55.343-.87 4.062-.72 8.025.03 12.092 2.39 12.942 16.07 41.692 8.4 53.293-11.54 17.449-99.31 80.884-117.86 84.438-1.52.293-3.17.466-4.57-.247.7-7.04.4-68.552-.64-74.309 1.52-3.287 12.02-8.882 15.87-11.46 3.54 8.973 17.94 34.107 24.28 41.42 2.36-4.885 4.76-12.29 6.97-17.659l19.74-48.865c6.91-17.423 23.86-56.993 27.07-72.319-1.78-1.348-2.88-.812-5.57-.741-14.23-1.784-29.34-.816-43.61-1.751-31.44-2.06-67.5-2.925-98.435-7.308 5.844 9.385 21.344 34.901 27.565 42.409-54.519 36.543-114.212 67.965-171.604 99.785-10.016 5.553-20.549 11.206-30.795 16.255-9.017 3.9-20.659 10.574-29.457 15.323 34.316-2.509 81.624-11.199 117.626-16.017 5.726 3.523 9.535 7.054 14.654 11.321 34.041 28.374 76.281 60.418 117.916 75.999 16.74 6.266 64.92-25.325 79.79-34.916a452.28 452.28 0 0 0 198.53-286.869c11.63-54.058 17.05-106.588 12.3-161.81-3-34.882 1.39-29.513-28.71-45.607-56.34-30.136-115.56-49.57-177.78-63.58-9.69-2.182-20.05-3.029-29.92-4.759.18-4.485.41-43.873-.27-45.8-8.17-2.956-50.02 18.604-59.36 24.08-7.11 4.172-21.639 17.88-29.348 20.579-8.952 3.135-22.971 4.206-32.758 5.934-14.058 2.483-26.39 6.349-40.029 10.168a816 816 0 0 0-135.573 50.306c-9.447 4.533-24.412 10.408-30.138 18.492-19.335 127.783 17.471 271 92.851 375.391 4.185-1.939 10.653-6.146 15.306-8.579a1126 1126 0 0 0 67.335-37.868c11.714-7.025 25.007-15.645 37.142-21.495.499-.456.532-.424.912-1.122 2.792-5.136-11.778-41.202-14.188-49.045-7.778-25.311-27.465-94.89-23.991-118.469 3.292-22.34 13.387-40.213 23.744-59.783l3.682 6.224c-6.496 12.928-11.278 41.335-5.859 53.268 11.852 26.103 47.255 92.89 63.552 112.354"/>
  <path fill="#c3a75b" d="M746.644 361.347c5.726-8.084 20.691-13.959 30.138-18.492a816 816 0 0 1 135.573-50.306c13.639-3.819 25.971-7.685 40.029-10.168 9.787-1.728 23.806-2.799 32.758-5.934 7.709-2.699 22.238-16.407 29.348-20.579 9.34-5.476 51.19-27.036 59.36-24.08.68 1.927.45 41.315.27 45.8 9.87 1.73 20.23 2.577 29.92 4.759 62.22 14.01 121.44 33.444 177.78 63.58 30.1 16.094 25.71 10.725 28.71 45.607 4.75 55.222-.67 107.752-12.3 161.81a452.28 452.28 0 0 1-198.53 286.869c-14.87 9.591-63.05 41.182-79.79 34.916-41.635-15.581-83.875-47.625-117.916-75.999-5.119-4.267-8.928-7.798-14.654-11.321-36.002 4.818-83.31 13.508-117.626 16.017 8.798-4.749 20.44-11.423 29.457-15.323 10.246-5.049 20.779-10.702 30.795-16.255 57.392-31.82 117.085-63.242 171.604-99.785-6.221-7.508-21.721-33.024-27.565-42.409 30.935 4.383 66.995 5.248 98.435 7.308 14.27.935 29.38-.033 43.61 1.751 2.69-.071 3.79-.607 5.57.741-3.21 15.326-20.16 54.896-27.07 72.319l-19.74 48.865c-2.21 5.369-4.61 12.774-6.97 17.659-6.34-7.313-20.74-32.447-24.28-41.42-3.85 2.578-14.35 8.173-15.87 11.46 1.04 5.757 1.34 67.269.64 74.309 1.4.713 3.05.54 4.57.247 18.55-3.554 106.32-66.989 117.86-84.438 7.67-11.601-6.01-40.351-8.4-53.293-.75-4.067-.9-8.03-.03-12.092 1.45-6.847 17.84-49.922 21.63-55.343 6 29.475 16.8 52.281 20.65 82.253a451.2 451.2 0 0 0 76.7-187.595c5.49-35.347 8.65-87.007 5.81-122.379-27.54-20.061-130.6-58.264-164.49-64.284 8.04 4.786 25.12 14.372 30.32 21.075 8.4 10.805 4.16 21.866 14.5 35.202 20.36 26.273 42.68 49.226 64.62 74.24 12.06 13.758 9.01 36.354 8.59 53.829-.37 15.466-21.34 28.286-31.93 37.694-1.66 1.476-8.34 5.656-10.58 6.192-11.57 2.759-39.87 3.425-51.32 1.791-16.92-16.606-20.19-27.468-40.44-43.075-13.49.807-22.02 2.316-35.17 5.429 19.42 20.871 44.2 40.95 64.01 61.967 9.42 9.992 21.19 18.61 30.14 29.42l-.24 1.408c-4.93 1.93-44.5.417-50.1-1.852-18.26-7.41-80.27-83.108-91.31-86.031 3.1 10.79 3.64 74.172 3.41 88.812-16.297-19.464-51.7-86.251-63.552-112.354-5.419-11.933-.637-40.34 5.859-53.268 6.231-11.063 10.082-25.671 13.852-37.97-3.995 5.694-13.447 24.426-17.534 31.746-10.357 19.57-20.452 37.443-23.744 59.783-3.474 23.579 16.213 93.158 23.991 118.469 2.41 7.843 16.98 43.909 14.188 49.045-.38.698-.413.666-.912 1.122-12.135 5.85-25.428 14.47-37.142 21.495a1126 1126 0 0 1-67.335 37.868c-4.653 2.433-11.121 6.64-15.306 8.579-75.38-104.391-112.186-247.608-92.851-375.391m179.872-26.089c6.66-3.966 13.549-7.838 20.279-11.71-7.754 1.326-17.287 4.023-24.686 6.684-42.826 12.44-58.714 20.897-72.484 64.275 13.686-9.886 27.61-23.677 41.166-34.375 12.133-9.576 22.88-16.42 35.725-24.874m-81.6 324.581c1.626 3.049 2.402 5.968 4.971 7.149 1.426-2.573 1.355-3.557 1.699-6.478 3.47-34.132-6.577-66.836-12.88-100.068-2.924-15.417-8.954-37.544-5.665-52.791 6.267-29.054 21.095-55.658 32.439-82.482 1.069-1.358 6.602-13.672 7.689-16.029-4.24 3.889-8.679 8.326-12.853 12.347-6.683 4.589-23.698 17.914-27.016 23.284-6.349 10.275-32.626 76.451-33.62 83.175-4.288 28.995 31.988 106.32 45.236 131.893"/>
  <path fill="#dfc47a" d="M881.891 676.015c8.552-38.209-2.295-80.017-10.52-117.429-6.818-31.018-9.614-45.196 3.257-75.14 9.19-22.812 19.595-45.372 29.573-67.832 8.737-19.668 11.028-36.161 29.25-49.589 11.79-11.088 46.562-28.618 55.463-39.869 22.476-28.412 19.626-37.376 56.566-53.625-2.31 16.262-3.03 33.417-5.87 49.416 20.68 8.239 47.54 26.437 65.01 40.611 9.16 11.881 7.63 24.613 16.7 37.993 17.86 26.335 54.79 56.445 69.64 82.652.98 34.444-18.9 43.111-49.97 41.262-11.17-14.277-30.16-38.763-48.31-43.109-14.56-4.913-39.86 6.767-52.13 5.388-9.2-1.034-45.945-19.188-50.564-26.737-9.872-16.139-11.856-48.777-15.072-67.749-1.189 10.596-2.324 19.788-4.784 30.195-4.191 17.723-10.029 31.768-10.43 49.996 10.9 15.091 36.256 34.783 44.02 50.962 3.1 10.79 3.64 74.172 3.41 88.812-16.297-19.464-51.7-86.251-63.552-112.354-5.419-11.933-.637-40.34 5.859-53.268 6.231-11.063 10.082-25.671 13.852-37.97-3.995 5.694-13.447 24.426-17.534 31.746-10.357 19.57-20.452 37.443-23.744 59.783-3.474 23.579 16.213 93.158 23.991 118.469 2.41 7.843 16.98 43.909 14.188 49.045-.38.698-.413.666-.912 1.122-25.47-.562-51.96 4.093-77.387 7.219"/>
  <path fill="#453200" d="M1041.18 360.584c2.58.875 12.97 6.903 15.97 8.636 9.41 5.45 15.59 8.451 25.72 12.298 6.15 10.304 12.5 20.655 18.07 31.271-10.53-2.161-31.53-9.52-39.63-16.935-8.61-7.873-15.45-24.349-20.13-35.27"/>
  <path fill="#dfc47a" d="M974.005 630.054c30.935 4.383 66.995 5.248 98.435 7.308 14.27.935 29.38-.033 43.61 1.751-6.39 8.007-20.98 16.559-29.45 23.088-34.31 26.435-75.86 48.624-113.46 69.396-19.006 10.5-160.732 66.254-173.969 56.906 10.246-5.049 20.779-10.702 30.795-16.255 57.392-31.82 117.085-63.242 171.604-99.785-6.221-7.508-21.721-33.024-27.565-42.409m-17.973 152.604c10.543-6.988 23.95-12.121 35.579-17.702 11.169-5.361 23.829-12.888 34.849-17.598l1.23 1.379c1.04 5.757 1.34 67.269.64 74.309-16.88 1.925-60.263-29.084-72.298-40.388"/>
  <path fill="#c3a75b" fill-opacity=".024" d="M922.109 330.232c7.399-2.661 16.932-5.358 24.686-6.684-6.73 3.872-13.619 7.744-20.279 11.71z"/>
  <path fill="#c3a75b" fill-opacity=".02" d="M873.169 409.14c-1.087 2.357-6.62 14.671-7.689 16.029-2.875-.661-3.101-1.32-5.164-3.682 4.174-4.021 8.613-8.458 12.853-12.347"/>
  <path fill="#c3a75b" fill-opacity=".012" d="m844.916 659.839 3.694-1.687c1.825.743 1.832.632 2.976 2.358-.344 2.921-.273 3.905-1.699 6.478-2.569-1.181-3.345-4.1-4.971-7.149"/>
  <path fill="#dfc47a" fill-opacity=".035" d="M945.755 440.377c4.087-7.32 13.539-26.052 17.534-31.746-3.77 12.299-7.621 26.907-13.852 37.97z"/>
</svg>
